{
DisplayStrings = (
$
);
date = "2013-05-07 17:01:52 +0000";
designer = "Shinji Pons";
designerURL = www.shinjipons.com;
familyName = "Modulo 22";
fontMaster = (
{
alignmentZones = (
"{128, 129}",
"{128, 129}",
"{128, 129}",
"{0, -2}",
"{0, -2}"
);
ascender = 128;
capHeight = 128;
customParameters = (
{
name = familyName;
value = "Modulo 22";
}
);
descender = 0;
guideLines = (
{
position = "{-25, 53}";
},
{
angle = 90;
position = "{83, 139}";
},
{
angle = 90;
position = "{61, 135}";
},
{
position = "{-18, 75}";
},
{
angle = 90;
position = "{30, 143}";
},
{
angle = 90;
position = "{114, 136}";
},
{
position = "{-22, 106}";
},
{
position = "{-20, 22}";
},
{
angle = 90;
position = "{8, -18}";
},
{
angle = 90;
position = "{136, -22}";
}
);
horizontalStems = (
22
);
id = "940E2F63-624A-4C3D-A909-721782B4CF41";
userData = {
GSOffsetHorizontal = 0;
GSOffsetVertical = "-11";
};
verticalStems = (
22
);
weightValue = 22;
widthValue = 128;
xHeight = 128;
}
);
glyphs = (
{
glyphname = A;
lastChange = "2013-06-13 15:19:03 +0100";
layers = (
{
layerId = "940E2F63-624A-4C3D-A909-721782B4CF41";
name = Regular;
paths = (
{
closed = 1;
nodes = (
"8 22 LINE",
"30 22 LINE",
"30 53 LINE",
"8 53 LINE"
);
},
{
closed = 1;
nodes = (
"114 22 LINE",
"136 22 LINE",
"136 106 LINE",
"114 106 LINE"
);
}
);
width = 144;
}
);
unicode = 0041;
},
{
glyphname = B;
lastChange = "2013-06-13 13:42:22 +0100";
layers = (
{
layerId = "940E2F63-624A-4C3D-A909-721782B4CF41";
name = Regular;
paths = (
{
closed = 1;
nodes = (
"8 22 LINE",
"30 22 LINE",
"30 106 LINE",
"8 106 LINE"
);
},
{
closed = 1;
nodes = (
"114 22 LINE",
"136 22 LINE",
"136 106 LINE",
"114 106 LINE"
);
}
);
width = 144;
}
);
unicode = 0042;
},
{
glyphname = C;
lastChange = "2013-06-13 13:42:31 +0100";
layers = (
{
layerId = "940E2F63-624A-4C3D-A909-721782B4CF41";
name = Regular;
paths = (
{
closed = 1;
nodes = (
"8 22 LINE",
"30 22 LINE",
"30 106 LINE",
"8 106 LINE"
);
}
);
width = 144;
}
);
unicode = 0043;
},
{
glyphname = D;
lastChange = "2013-06-13 13:42:46 +0100";
layers = (
{
background = {
paths = (
{
closed = 1;
nodes = (
"136 128 LINE",
"8 128 LINE",
"8 106 LINE",
"114 106 LINE",
"114 22 LINE",
"30 22 LINE",
"30 75 LINE",
"8 75 LINE",
"8 0 LINE",
"136 0 LINE"
);
}
);
};
layerId = "940E2F63-624A-4C3D-A909-721782B4CF41";
name = Regular;
paths = (
{
closed = 1;
nodes = (
"8 22 LINE",
"30 22 LINE",
"30 53 LINE",
"8 53 LINE"
);
},
{
closed = 1;
nodes = (
"114 22 LINE",
"136 22 LINE",
"136 106 LINE",
"114 106 LINE"
);
}
);
width = 144;
}
);
unicode = 0044;
},
{
glyphname = E;
lastChange = "2013-06-13 13:43:04 +0100";
layers = (
{
layerId = "940E2F63-624A-4C3D-A909-721782B4CF41";
name = Regular;
paths = (
{
closed = 1;
nodes = (
"8 22 LINE",
"30 22 LINE",
"30 106 LINE",
"8 106 LINE"
);
},
{
closed = 1;
nodes = (
"114 75 LINE",
"136 75 LINE",
"136 106 LINE",
"114 106 LINE"
);
}
);
width = 144;
}
);
unicode = 0045;
},
{
glyphname = F;
lastChange = "2013-06-13 13:43:13 +0100";
layers = (
{
layerId = "940E2F63-624A-4C3D-A909-721782B4CF41";
name = Regular;
paths = (
{
closed = 1;
nodes = (
"8 22 LINE",
"30 22 LINE",
"30 106 LINE",
"8 106 LINE"
);
}
);
width = 144;
}
);
unicode = 0046;
},
{
glyphname = G;
lastChange = "2013-06-13 13:43:32 +0100";
layers = (
{
layerId = "940E2F63-624A-4C3D-A909-721782B4CF41";
name = Regular;
paths = (
{
closed = 1;
nodes = (
"8 22 LINE",
"30 22 LINE",
"30 106 LINE",
"8 106 LINE"
);
},
{
closed = 1;
nodes = (
"114 22 LINE",
"136 22 LINE",
"136 53 LINE",
"114 53 LINE"
);
}
);
width = 144;
}
);
unicode = 0047;
},
{
glyphname = H;
lastChange = "2013-06-13 13:43:41 +0100";
layers = (
{
layerId = "940E2F63-624A-4C3D-A909-721782B4CF41";
name = Regular;
paths = (
{
closed = 1;
nodes = (
"8 22 LINE",
"30 22 LINE",
"30 106 LINE",
"8 106 LINE"
);
},
{
closed = 1;
nodes = (
"114 22 LINE",
"136 22 LINE",
"136 106 LINE",
"114 106 LINE"
);
}
);
width = 144;
}
);
unicode = 0048;
},
{
glyphname = I;
lastChange = "2013-06-13 13:43:55 +0100";
layers = (
{
layerId = "940E2F63-624A-4C3D-A909-721782B4CF41";
name = Regular;
paths = (
{
closed = 1;
nodes = (
"61 22 LINE",
"83 22 LINE",
"83 106 LINE",
"61 106 LINE"
);
}
);
width = 144;
}
);
unicode = 0049;
},
{
glyphname = J;
lastChange = "2013-06-13 13:44:06 +0100";
layers = (
{
layerId = "940E2F63-624A-4C3D-A909-721782B4CF41";
name = Regular;
paths = (
{
closed = 1;
nodes = (
"114 22 LINE",
"136 22 LINE",
"136 106 LINE",
"114 106 LINE"
);
}
);
width = 144;
}
);
unicode = 004A;
},
{
glyphname = K;
lastChange = "2013-06-13 13:44:23 +0100";
layers = (
{
layerId = "940E2F63-624A-4C3D-A909-721782B4CF41";
name = Regular;
paths = (
{
closed = 1;
nodes = (
"8 22 LINE",
"30 22 LINE",
"30 106 LINE",
"8 106 LINE"
);
},
{
closed = 1;
nodes = (
"61 75 LINE",
"83 75 LINE",
"83 106 LINE",
"61 106 LINE"
);
},
{
closed = 1;
nodes = (
"114 22 LINE",
"136 22 LINE",
"136 53 LINE",
"114 53 LINE"
);
}
);
width = 144;
}
);
unicode = 004B;
},
{
glyphname = L;
lastChange = "2013-06-13 13:44:34 +0100";
layers = (
{
layerId = "940E2F63-624A-4C3D-A909-721782B4CF41";
name = Regular;
paths = (
{
closed = 1;
nodes = (
"8 106 LINE",
"8 22 LINE",
"30 22 LINE",
"30 106 LINE"
);
}
);
width = 144;
}
);
unicode = 004C;
},
{
glyphname = M;
lastChange = "2013-06-13 13:44:43 +0100";
layers = (
{
layerId = "940E2F63-624A-4C3D-A909-721782B4CF41";
name = Regular;
paths = (
{
closed = 1;
nodes = (
"8 22 LINE",
"30 22 LINE",
"30 106 LINE",
"8 106 LINE"
);
},
{
closed = 1;
nodes = (
"61 22 LINE",
"83 22 LINE",
"83 106 LINE",
"61 106 LINE"
);
},
{
closed = 1;
nodes = (
"114 22 LINE",
"136 22 LINE",
"136 106 LINE",
"114 106 LINE"
);
}
);
width = 144;
}
);
unicode = 004D;
},
{
glyphname = N;
lastChange = "2013-06-13 15:17:02 +0100";
layers = (
{
layerId = "940E2F63-624A-4C3D-A909-721782B4CF41";
name = Regular;
paths = (
{
closed = 1;
nodes = (
"8 22 LINE",
"30 22 LINE",
"30 106 LINE",
"8 106 LINE"
);
},
{
closed = 1;
nodes = (
"61 22 LINE",
"83 22 LINE",
"83 106 LINE",
"61 106 LINE"
);
},
{
closed = 1;
nodes = (
"114 22 LINE",
"136 22 LINE",
"136 106 LINE",
"114 106 LINE"
);
}
);
width = 144;
}
);
unicode = 004E;
},
{
glyphname = O;
lastChange = "2013-06-13 13:45:25 +0100";
layers = (
{
layerId = "940E2F63-624A-4C3D-A909-721782B4CF41";
name = Regular;
paths = (
{
closed = 1;
nodes = (
"8 22 LINE",
"30 22 LINE",
"30 106 LINE",
"8 106 LINE"
);
},
{
closed = 1;
nodes = (
"114 22 LINE",
"136 22 LINE",
"136 106 LINE",
"114 106 LINE"
);
}
);
width = 144;
}
);
unicode = 004F;
},
{
glyphname = P;
lastChange = "2013-06-13 13:45:59 +0100";
layers = (
{
layerId = "940E2F63-624A-4C3D-A909-721782B4CF41";
name = Regular;
paths = (
{
closed = 1;
nodes = (
"8 22 LINE",
"30 22 LINE",
"30 106 LINE",
"8 106 LINE"
);
},
{
closed = 1;
nodes = (
"114 75 LINE",
"136 75 LINE",
"136 106 LINE",
"114 106 LINE"
);
}
);
width = 144;
}
);
unicode = 0050;
},
{
glyphname = Q;
lastChange = "2013-06-13 13:46:08 +0100";
layers = (
{
layerId = "940E2F63-624A-4C3D-A909-721782B4CF41";
name = Regular;
paths = (
{
closed = 1;
nodes = (
"8 22 LINE",
"30 22 LINE",
"30 106 LINE",
"8 106 LINE"
);
},
{
closed = 1;
nodes = (
"61 22 LINE",
"83 22 LINE",
"83 53 LINE",
"61 53 LINE"
);
},
{
closed = 1;
nodes = (
"114 22 LINE",
"136 22 LINE",
"136 106 LINE",
"114 106 LINE"
);
}
);
width = 144;
}
);
unicode = 0051;
},
{
glyphname = R;
lastChange = "2013-06-13 13:47:42 +0100";
layers = (
{
layerId = "940E2F63-624A-4C3D-A909-721782B4CF41";
name = Regular;
paths = (
{
closed = 1;
nodes = (
"8 22 LINE",
"30 22 LINE",
"30 106 LINE",
"8 106 LINE"
);
},
{
closed = 1;
nodes = (
"114 75 LINE",
"136 75 LINE",
"136 106 LINE",
"114 106 LINE"
);
},
{
closed = 1;
nodes = (
"61 22 LINE",
"83 22 LINE",
"83 53 LINE",
"61 53 LINE"
);
}
);
width = 144;
}
);
unicode = 0052;
},
{
glyphname = S;
lastChange = "2013-06-13 13:47:55 +0100";
layers = (
{
layerId = "940E2F63-624A-4C3D-A909-721782B4CF41";
name = Regular;
paths = (
{
closed = 1;
nodes = (
"8 75 LINE",
"30 75 LINE",
"30 106 LINE",
"8 106 LINE"
);
},
{
closed = 1;
nodes = (
"136 22 LINE",
"136 53 LINE",
"114 53 LINE",
"114 22 LINE"
);
}
);
width = 144;
}
);
unicode = 0053;
},
{
glyphname = T;
lastChange = "2013-06-13 13:48:07 +0100";
layers = (
{
layerId = "940E2F63-624A-4C3D-A909-721782B4CF41";
name = Regular;
paths = (
{
closed = 1;
nodes = (
"61 22 LINE",
"83 22 LINE",
"83 106 LINE",
"61 106 LINE"
);
}
);
width = 144;
}
);
unicode = 0054;
},
{
glyphname = U;
lastChange = "2013-06-13 13:48:17 +0100";
layers = (
{
layerId = "940E2F63-624A-4C3D-A909-721782B4CF41";
name = Regular;
paths = (
{
closed = 1;
nodes = (
"8 22 LINE",
"30 22 LINE",
"30 106 LINE",
"8 106 LINE"
);
},
{
closed = 1;
nodes = (
"114 22 LINE",
"136 22 LINE",
"136 106 LINE",
"114 106 LINE"
);
}
);
width = 144;
}
);
unicode = 0055;
},
{
glyphname = V;
lastChange = "2013-06-13 13:48:26 +0100";
layers = (
{
layerId = "940E2F63-624A-4C3D-A909-721782B4CF41";
name = Regular;
paths = (
{
closed = 1;
nodes = (
"8 22 LINE",
"30 22 LINE",
"30 106 LINE",
"8 106 LINE"
);
},
{
closed = 1;
nodes = (
"61 22 LINE",
"83 22 LINE",
"83 53 LINE",
"61 53 LINE"
);
},
{
closed = 1;
nodes = (
"114 75 LINE",
"136 75 LINE",
"136 106 LINE",
"114 106 LINE"
);
}
);
width = 144;
}
);
unicode = 0056;
},
{
glyphname = W;
lastChange = "2013-06-13 13:48:32 +0100";
layers = (
{
layerId = "940E2F63-624A-4C3D-A909-721782B4CF41";
name = Regular;
paths = (
{
closed = 1;
nodes = (
"8 22 LINE",
"30 22 LINE",
"30 106 LINE",
"8 106 LINE"
);
},
{
closed = 1;
nodes = (
"61 22 LINE",
"83 22 LINE",
"83 106 LINE",
"61 106 LINE"
);
},
{
closed = 1;
nodes = (
"114 22 LINE",
"136 22 LINE",
"136 106 LINE",
"114 106 LINE"
);
}
);
width = 144;
}
);
unicode = 0057;
},
{
glyphname = X;
lastChange = "2013-06-13 13:48:44 +0100";
layers = (
{
layerId = "940E2F63-624A-4C3D-A909-721782B4CF41";
name = Regular;
paths = (
{
closed = 1;
nodes = (
"61 22 LINE",
"83 22 LINE",
"83 106 LINE",
"61 106 LINE"
);
},
{
closed = 1;
nodes = (
"114 22 LINE",
"136 22 LINE",
"136 53 LINE",
"114 53 LINE"
);
},
{
closed = 1;
nodes = (
"8 75 LINE",
"30 75 LINE",
"30 106 LINE",
"8 106 LINE"
);
}
);
width = 144;
}
);
unicode = 0058;
},
{
glyphname = Y;
lastChange = "2013-06-13 13:48:54 +0100";
layers = (
{
layerId = "940E2F63-624A-4C3D-A909-721782B4CF41";
name = Regular;
paths = (
{
closed = 1;
nodes = (
"8 75 LINE",
"30 75 LINE",
"30 106 LINE",
"8 106 LINE"
);
},
{
closed = 1;
nodes = (
"114 22 LINE",
"136 22 LINE",
"136 106 LINE",
"114 106 LINE"
);
}
);
width = 144;
}
);
unicode = 0059;
},
{
glyphname = Z;
lastChange = "2013-06-13 13:49:09 +0100";
layers = (
{
layerId = "940E2F63-624A-4C3D-A909-721782B4CF41";
name = Regular;
paths = (
{
closed = 1;
nodes = (
"114 75 LINE",
"136 75 LINE",
"136 106 LINE",
"114 106 LINE"
);
},
{
closed = 1;
nodes = (
"8 22 LINE",
"30 22 LINE",
"30 53 LINE",
"8 53 LINE"
);
}
);
width = 144;
}
);
unicode = 005A;
},
{
glyphname = zero;
lastChange = "2013-06-13 13:53:20 +0100";
layers = (
{
layerId = "940E2F63-624A-4C3D-A909-721782B4CF41";
name = Regular;
paths = (
{
closed = 1;
nodes = (
"8 22 LINE",
"30 22 LINE",
"30 106 LINE",
"8 106 LINE"
);
},
{
closed = 1;
nodes = (
"114 22 LINE",
"136 22 LINE",
"136 106 LINE",
"114 106 LINE"
);
}
);
width = 144;
}
);
unicode = 0030;
},
{
glyphname = one;
lastChange = "2013-06-13 13:53:39 +0100";
layers = (
{
layerId = "940E2F63-624A-4C3D-A909-721782B4CF41";
name = Regular;
paths = (
{
closed = 1;
nodes = (
"61 22 LINE",
"83 22 LINE",
"83 106 LINE",
"61 106 LINE"
);
}
);
width = 144;
}
);
unicode = 0031;
},
{
glyphname = three;
lastChange = "2013-06-13 13:53:49 +0100";
layers = (
{
layerId = "940E2F63-624A-4C3D-A909-721782B4CF41";
name = Regular;
paths = (
{
closed = 1;
nodes = (
"114 22 LINE",
"136 22 LINE",
"136 106 LINE",
"114 106 LINE"
);
}
);
width = 144;
}
);
unicode = 0033;
},
{
glyphname = four;
lastChange = "2013-06-13 13:53:58 +0100";
layers = (
{
layerId = "940E2F63-624A-4C3D-A909-721782B4CF41";
name = Regular;
paths = (
{
closed = 1;
nodes = (
"8 75 LINE",
"30 75 LINE",
"30 106 LINE",
"8 106 LINE"
);
},
{
closed = 1;
nodes = (
"114 22 LINE",
"136 22 LINE",
"136 106 LINE",
"114 106 LINE"
);
}
);
width = 144;
}
);
unicode = 0034;
},
{
glyphname = seven;
lastChange = "2013-06-13 13:54:08 +0100";
layers = (
{
layerId = "940E2F63-624A-4C3D-A909-721782B4CF41";
name = Regular;
paths = (
{
closed = 1;
nodes = (
"61 22 LINE",
"83 22 LINE",
"83 53 LINE",
"61 53 LINE"
);
},
{
closed = 1;
nodes = (
"114 75 LINE",
"136 75 LINE",
"136 106 LINE",
"114 106 LINE"
);
}
);
width = 144;
}
);
unicode = 0037;
},
{
glyphname = eight;
lastChange = "2013-06-13 13:54:19 +0100";
layers = (
{
layerId = "940E2F63-624A-4C3D-A909-721782B4CF41";
name = Regular;
paths = (
{
closed = 1;
nodes = (
"8 22 LINE",
"30 22 LINE",
"30 106 LINE",
"8 106 LINE"
);
},
{
closed = 1;
nodes = (
"114 22 LINE",
"136 22 LINE",
"136 106 LINE",
"114 106 LINE"
);
}
);
width = 144;
}
);
unicode = 0038;
},
{
glyphname = asterisk;
lastChange = "2013-06-13 13:54:32 +0100";
layers = (
{
layerId = "940E2F63-624A-4C3D-A909-721782B4CF41";
name = Regular;
paths = (
{
closed = 1;
nodes = (
"61 22 LINE",
"83 22 LINE",
"83 106 LINE",
"61 106 LINE"
);
}
);
width = 144;
}
);
unicode = 002A;
},
{
glyphname = backslash;
lastChange = "2013-06-13 13:54:41 +0100";
layers = (
{
layerId = "940E2F63-624A-4C3D-A909-721782B4CF41";
name = Regular;
paths = (
{
closed = 1;
nodes = (
"8 22 LINE",
"30 22 LINE",
"30 106 LINE",
"8 106 LINE"
);
},
{
closed = 1;
nodes = (
"61 22 LINE",
"83 22 LINE",
"83 106 LINE",
"61 106 LINE"
);
},
{
closed = 1;
nodes = (
"114 22 LINE",
"136 22 LINE",
"136 106 LINE",
"114 106 LINE"
);
}
);
width = 144;
}
);
unicode = 005C;
},
{
glyphname = comma;
lastChange = "2013-06-13 13:54:56 +0100";
layers = (
{
layerId = "940E2F63-624A-4C3D-A909-721782B4CF41";
name = Regular;
paths = (
{
closed = 1;
nodes = (
"8 22 LINE",
"30 22 LINE",
"30 106 LINE",
"8 106 LINE"
);
},
{
closed = 1;
nodes = (
"61 22 LINE",
"83 22 LINE",
"83 106 LINE",
"61 106 LINE"
);
},
{
closed = 1;
nodes = (
"114 22 LINE",
"136 22 LINE",
"136 106 LINE",
"114 106 LINE"
);
}
);
width = 144;
}
);
unicode = 002C;
},
{
glyphname = exclam;
lastChange = "2013-06-13 13:55:06 +0100";
layers = (
{
layerId = "940E2F63-624A-4C3D-A909-721782B4CF41";
name = Regular;
paths = (
{
closed = 1;
nodes = (
"136 106 LINE",
"114 106 LINE",
"114 75 LINE",
"136 75 LINE"
);
},
{
closed = 1;
nodes = (
"83 106 LINE",
"61 106 LINE",
"61 75 LINE",
"83 75 LINE"
);
},
{
closed = 1;
nodes = (
"30 106 LINE",
"8 106 LINE",
"8 75 LINE",
"30 75 LINE"
);
}
);
width = 144;
}
);
unicode = 0021;
},
{
glyphname = exclamdown;
lastChange = "2013-06-13 13:55:17 +0100";
layers = (
{
layerId = "940E2F63-624A-4C3D-A909-721782B4CF41";
name = Regular;
paths = (
{
closed = 1;
nodes = (
"114 53 LINE",
"114 22 LINE",
"136 22 LINE",
"136 53 LINE"
);
},
{
closed = 1;
nodes = (
"61 53 LINE",
"61 22 LINE",
"83 22 LINE",
"83 53 LINE"
);
},
{
closed = 1;
nodes = (
"8 53 LINE",
"8 22 LINE",
"30 22 LINE",
"30 53 LINE"
);
}
);
width = 144;
}
);
unicode = 00A1;
},
{
glyphname = numbersign;
lastChange = "2013-06-13 13:55:24 +0100";
layers = (
{
layerId = "940E2F63-624A-4C3D-A909-721782B4CF41";
name = Regular;
paths = (
{
closed = 1;
nodes = (
"8 22 LINE",
"30 22 LINE",
"30 106 LINE",
"8 106 LINE"
);
},
{
closed = 1;
nodes = (
"61 22 LINE",
"83 22 LINE",
"83 106 LINE",
"61 106 LINE"
);
},
{
closed = 1;
nodes = (
"114 22 LINE",
"136 22 LINE",
"136 106 LINE",
"114 106 LINE"
);
}
);
width = 144;
}
);
unicode = 0023;
},
{
glyphname = period;
lastChange = "2013-06-13 13:55:30 +0100";
layers = (
{
layerId = "940E2F63-624A-4C3D-A909-721782B4CF41";
name = Regular;
paths = (
{
closed = 1;
nodes = (
"8 22 LINE",
"30 22 LINE",
"30 106 LINE",
"8 106 LINE"
);
},
{
closed = 1;
nodes = (
"61 22 LINE",
"83 22 LINE",
"83 106 LINE",
"61 106 LINE"
);
},
{
closed = 1;
nodes = (
"114 22 LINE",
"136 22 LINE",
"136 106 LINE",
"114 106 LINE"
);
}
);
width = 144;
}
);
unicode = 002E;
},
{
glyphname = periodcentered;
lastChange = "2013-06-13 13:55:36 +0100";
layers = (
{
layerId = "940E2F63-624A-4C3D-A909-721782B4CF41";
name = Regular;
paths = (
{
closed = 1;
nodes = (
"8 22 LINE",
"30 22 LINE",
"30 106 LINE",
"8 106 LINE"
);
},
{
closed = 1;
nodes = (
"61 22 LINE",
"83 22 LINE",
"83 106 LINE",
"61 106 LINE"
);
},
{
closed = 1;
nodes = (
"114 22 LINE",
"136 22 LINE",
"136 106 LINE",
"114 106 LINE"
);
}
);
width = 144;
}
);
unicode = 00B7;
},
{
glyphname = question;
lastChange = "2013-06-13 13:55:44 +0100";
layers = (
{
layerId = "940E2F63-624A-4C3D-A909-721782B4CF41";
name = Regular;
paths = (
{
closed = 1;
nodes = (
"114 75 LINE",
"136 75 LINE",
"136 106 LINE",
"114 106 LINE"
);
}
);
width = 144;
}
);
unicode = 003F;
},
{
glyphname = quotedbl;
lastChange = "2013-06-13 13:55:52 +0100";
layers = (
{
layerId = "940E2F63-624A-4C3D-A909-721782B4CF41";
name = Regular;
paths = (
{
closed = 1;
nodes = (
"8 22 LINE",
"30 22 LINE",
"30 106 LINE",
"8 106 LINE"
);
},
{
closed = 1;
nodes = (
"61 22 LINE",
"83 22 LINE",
"83 106 LINE",
"61 106 LINE"
);
},
{
closed = 1;
nodes = (
"114 22 LINE",
"136 22 LINE",
"136 106 LINE",
"114 106 LINE"
);
}
);
width = 144;
}
);
unicode = 0022;
},
{
glyphname = quotesingle;
lastChange = "2013-06-13 13:55:55 +0100";
layers = (
{
layerId = "940E2F63-624A-4C3D-A909-721782B4CF41";
name = Regular;
paths = (
{
closed = 1;
nodes = (
"8 22 LINE",
"30 22 LINE",
"30 106 LINE",
"8 106 LINE"
);
},
{
closed = 1;
nodes = (
"61 22 LINE",
"83 22 LINE",
"83 106 LINE",
"61 106 LINE"
);
},
{
closed = 1;
nodes = (
"114 22 LINE",
"136 22 LINE",
"136 106 LINE",
"114 106 LINE"
);
}
);
width = 144;
}
);
unicode = 0027;
},
{
glyphname = semicolon;
lastChange = "2013-06-13 13:55:57 +0100";
layers = (
{
layerId = "940E2F63-624A-4C3D-A909-721782B4CF41";
name = Regular;
paths = (
{
closed = 1;
nodes = (
"8 22 LINE",
"30 22 LINE",
"30 106 LINE",
"8 106 LINE"
);
},
{
closed = 1;
nodes = (
"61 22 LINE",
"83 22 LINE",
"83 106 LINE",
"61 106 LINE"
);
},
{
closed = 1;
nodes = (
"114 22 LINE",
"136 22 LINE",
"136 106 LINE",
"114 106 LINE"
);
}
);
width = 144;
}
);
unicode = 003B;
},
{
glyphname = slash;
lastChange = "2013-06-13 13:55:59 +0100";
layers = (
{
layerId = "940E2F63-624A-4C3D-A909-721782B4CF41";
name = Regular;
paths = (
{
closed = 1;
nodes = (
"8 22 LINE",
"30 22 LINE",
"30 106 LINE",
"8 106 LINE"
);
},
{
closed = 1;
nodes = (
"61 22 LINE",
"83 22 LINE",
"83 106 LINE",
"61 106 LINE"
);
},
{
closed = 1;
nodes = (
"114 22 LINE",
"136 22 LINE",
"136 106 LINE",
"114 106 LINE"
);
}
);
width = 144;
}
);
unicode = 002F;
},
{
glyphname = underscore;
lastChange = "2013-06-13 13:56:01 +0100";
layers = (
{
layerId = "940E2F63-624A-4C3D-A909-721782B4CF41";
name = Regular;
paths = (
{
closed = 1;
nodes = (
"8 22 LINE",
"30 22 LINE",
"30 106 LINE",
"8 106 LINE"
);
},
{
closed = 1;
nodes = (
"61 22 LINE",
"83 22 LINE",
"83 106 LINE",
"61 106 LINE"
);
},
{
closed = 1;
nodes = (
"114 22 LINE",
"136 22 LINE",
"136 106 LINE",
"114 106 LINE"
);
}
);
width = 144;
}
);
unicode = 005F;
},
{
glyphname = braceleft;
lastChange = "2013-06-13 13:56:12 +0100";
layers = (
{
layerId = "940E2F63-624A-4C3D-A909-721782B4CF41";
name = Regular;
paths = (
{
closed = 1;
nodes = (
"61 22 LINE",
"83 22 LINE",
"83 106 LINE",
"61 106 LINE"
);
}
);
width = 144;
}
);
unicode = 007B;
},
{
glyphname = guillemotleft;
lastChange = "2013-06-13 13:56:22 +0100";
layers = (
{
layerId = "940E2F63-624A-4C3D-A909-721782B4CF41";
name = Regular;
paths = (
{
closed = 1;
nodes = (
"8 22 LINE",
"30 22 LINE",
"30 106 LINE",
"8 106 LINE"
);
},
{
closed = 1;
nodes = (
"61 22 LINE",
"83 22 LINE",
"83 106 LINE",
"61 106 LINE"
);
},
{
closed = 1;
nodes = (
"114 22 LINE",
"136 22 LINE",
"136 106 LINE",
"114 106 LINE"
);
}
);
width = 144;
}
);
unicode = 00AB;
},
{
glyphname = guillemotright;
lastChange = "2013-06-13 13:56:24 +0100";
layers = (
{
layerId = "940E2F63-624A-4C3D-A909-721782B4CF41";
name = Regular;
paths = (
{
closed = 1;
nodes = (
"8 22 LINE",
"30 22 LINE",
"30 106 LINE",
"8 106 LINE"
);
},
{
closed = 1;
nodes = (
"61 22 LINE",
"83 22 LINE",
"83 106 LINE",
"61 106 LINE"
);
},
{
closed = 1;
nodes = (
"114 22 LINE",
"136 22 LINE",
"136 106 LINE",
"114 106 LINE"
);
}
);
width = 144;
}
);
unicode = 00BB;
},
{
glyphname = guilsinglleft;
lastChange = "2013-06-13 13:56:26 +0100";
layers = (
{
layerId = "940E2F63-624A-4C3D-A909-721782B4CF41";
name = Regular;
paths = (
{
closed = 1;
nodes = (
"8 22 LINE",
"30 22 LINE",
"30 106 LINE",
"8 106 LINE"
);
},
{
closed = 1;
nodes = (
"61 22 LINE",
"83 22 LINE",
"83 106 LINE",
"61 106 LINE"
);
},
{
closed = 1;
nodes = (
"114 22 LINE",
"136 22 LINE",
"136 106 LINE",
"114 106 LINE"
);
}
);
width = 144;
}
);
unicode = 2039;
},
{
glyphname = guilsinglright;
lastChange = "2013-06-13 13:56:28 +0100";
layers = (
{
layerId = "940E2F63-624A-4C3D-A909-721782B4CF41";
name = Regular;
paths = (
{
closed = 1;
nodes = (
"8 22 LINE",
"30 22 LINE",
"30 106 LINE",
"8 106 LINE"
);
},
{
closed = 1;
nodes = (
"61 22 LINE",
"83 22 LINE",
"83 106 LINE",
"61 106 LINE"
);
},
{
closed = 1;
nodes = (
"114 22 LINE",
"136 22 LINE",
"136 106 LINE",
"114 106 LINE"
);
}
);
width = 144;
}
);
unicode = 203A;
},
{
glyphname = quotedblleft;
lastChange = "2013-06-13 13:56:35 +0100";
layers = (
{
layerId = "940E2F63-624A-4C3D-A909-721782B4CF41";
name = Regular;
paths = (
{
closed = 1;
nodes = (
"8 22 LINE",
"30 22 LINE",
"30 106 LINE",
"8 106 LINE"
);
},
{
closed = 1;
nodes = (
"61 22 LINE",
"83 22 LINE",
"83 106 LINE",
"61 106 LINE"
);
},
{
closed = 1;
nodes = (
"114 22 LINE",
"136 22 LINE",
"136 106 LINE",
"114 106 LINE"
);
}
);
width = 144;
}
);
unicode = 201C;
},
{
glyphname = quotedblright;
lastChange = "2013-06-13 13:56:37 +0100";
layers = (
{
layerId = "940E2F63-624A-4C3D-A909-721782B4CF41";
name = Regular;
paths = (
{
closed = 1;
nodes = (
"8 22 LINE",
"30 22 LINE",
"30 106 LINE",
"8 106 LINE"
);
},
{
closed = 1;
nodes = (
"61 22 LINE",
"83 22 LINE",
"83 106 LINE",
"61 106 LINE"
);
},
{
closed = 1;
nodes = (
"114 22 LINE",
"136 22 LINE",
"136 106 LINE",
"114 106 LINE"
);
}
);
width = 144;
}
);
unicode = 201D;
},
{
glyphname = quoteleft;
lastChange = "2013-06-13 13:56:38 +0100";
layers = (
{
layerId = "940E2F63-624A-4C3D-A909-721782B4CF41";
name = Regular;
paths = (
{
closed = 1;
nodes = (
"8 22 LINE",
"30 22 LINE",
"30 106 LINE",
"8 106 LINE"
);
},
{
closed = 1;
nodes = (
"61 22 LINE",
"83 22 LINE",
"83 106 LINE",
"61 106 LINE"
);
},
{
closed = 1;
nodes = (
"114 22 LINE",
"136 22 LINE",
"136 106 LINE",
"114 106 LINE"
);
}
);
width = 144;
}
);
unicode = 2018;
},
{
glyphname = quoteright;
lastChange = "2013-06-13 13:56:41 +0100";
layers = (
{
layerId = "940E2F63-624A-4C3D-A909-721782B4CF41";
name = Regular;
paths = (
{
closed = 1;
nodes = (
"8 22 LINE",
"30 22 LINE",
"30 106 LINE",
"8 106 LINE"
);
},
{
closed = 1;
nodes = (
"61 22 LINE",
"83 22 LINE",
"83 106 LINE",
"61 106 LINE"
);
},
{
closed = 1;
nodes = (
"114 22 LINE",
"136 22 LINE",
"136 106 LINE",
"114 106 LINE"
);
}
);
width = 144;
}
);
unicode = 2019;
},
{
color = 0;
glyphname = dollar;
lastChange = "2013-12-01 20:41:03 +0000";
layers = (
{
components = (
{
name = S;
transform = "{1, 0, 0, 1, 0, 0}";
}
);
layerId = "940E2F63-624A-4C3D-A909-721782B4CF41";
name = Regular;
paths = (
{
closed = 1;
nodes = (
"61 22 LINE",
"83 22 LINE",
"83 106 LINE",
"61 106 LINE"
);
}
);
width = 144;
}
);
unicode = 0024;
},
{
color = 0;
glyphname = sterling;
lastChange = "2013-11-29 21:22:02 +0000";
layers = (
{
layerId = "940E2F63-624A-4C3D-A909-721782B4CF41";
name = Regular;
paths = (
{
closed = 1;
nodes = (
"61 75 LINE",
"83 75 LINE",
"83 106 LINE",
"61 106 LINE"
);
},
{
closed = 1;
nodes = (
"8 22 LINE",
"30 22 LINE",
"30 53 LINE",
"8 53 LINE"
);
}
);
width = 144;
}
);
unicode = 00A3;
},
{
color = 0;
glyphname = percent;
lastChange = "2013-11-29 21:23:49 +0000";
layers = (
{
layerId = "940E2F63-624A-4C3D-A909-721782B4CF41";
name = Regular;
paths = (
{
closed = 1;
nodes = (
"114 75 LINE",
"136 75 LINE",
"136 106 LINE",
"114 106 LINE"
);
},
{
closed = 1;
nodes = (
"8 22 LINE",
"30 22 LINE",
"30 53 LINE",
"8 53 LINE"
);
}
);
width = 144;
}
);
unicode = 0025;
},
{
glyphname = plus;
lastChange = "2013-06-13 13:57:03 +0100";
layers = (
{
layerId = "940E2F63-624A-4C3D-A909-721782B4CF41";
name = Regular;
paths = (
{
closed = 1;
nodes = (
"61 22 LINE",
"83 22 LINE",
"83 106 LINE",
"61 106 LINE"
);
}
);
width = 144;
}
);
unicode = 002B;
},
{
glyphname = ampersand;
lastChange = "2013-06-13 13:57:12 +0100";
layers = (
{
layerId = "940E2F63-624A-4C3D-A909-721782B4CF41";
name = Regular;
paths = (
{
closed = 1;
nodes = (
"8 22 LINE",
"30 22 LINE",
"30 53 LINE",
"8 53 LINE"
);
},
{
closed = 1;
nodes = (
"61 75 LINE",
"83 75 LINE",
"83 106 LINE",
"61 106 LINE"
);
},
{
closed = 1;
nodes = (
"114 75 LINE",
"136 75 LINE",
"136 106 LINE",
"114 106 LINE"
);
}
);
width = 144;
}
);
unicode = 0026;
},
{
color = 0;
glyphname = asciicircum;
lastChange = "2013-11-29 21:24:19 +0000";
layers = (
{
layerId = "940E2F63-624A-4C3D-A909-721782B4CF41";
name = Regular;
paths = (
{
closed = 1;
nodes = (
"61 75 LINE",
"83 75 LINE",
"83 106 LINE",
"61 106 LINE"
);
},
{
closed = 1;
nodes = (
"8 22 LINE",
"30 22 LINE",
"30 53 LINE",
"8 53 LINE"
);
},
{
closed = 1;
nodes = (
"114 22 LINE",
"136 22 LINE",
"136 53 LINE",
"114 53 LINE"
);
}
);
width = 144;
}
);
unicode = 005E;
},
{
glyphname = degree;
lastChange = "2013-06-13 13:57:25 +0100";
layers = (
{
layerId = "940E2F63-624A-4C3D-A909-721782B4CF41";
name = Regular;
paths = (
{
closed = 1;
nodes = (
"8 75 LINE",
"30 75 LINE",
"30 106 LINE",
"8 106 LINE"
);
},
{
closed = 1;
nodes = (
"61 75 LINE",
"83 75 LINE",
"83 106 LINE",
"61 106 LINE"
);
},
{
closed = 1;
nodes = (
"114 22 LINE",
"136 22 LINE",
"136 53 LINE",
"114 53 LINE"
);
}
);
width = 144;
}
);
unicode = 00B0;
},
